<svg version="1" xmlns="http://www.w3.org/2000/svg" width="702.667" height="702.667" viewBox="0 0 527.000000 527.000000"><path d="M200.3 19.6c-.1 18.5-.2 19.6-2.1 21.5-2 1.8-4 1.9-42.6 1.9-35.4 0-40.7.2-42.1 1.6-1 1-3.3 1.6-6.4 1.6-3.4-.1-5.1.4-5.5 1.4-.3.9-2 1.4-4.5 1.4s-4.1.5-4.5 1.5c-.3.8-1.4 1.5-2.5 1.5s-3.4 1.3-5.1 3c-1.7 1.6-3.7 3-4.5 3C78.6 58 59 77.8 59 79.8c0 .8-1.3 2.8-3 4.4-1.6 1.5-3 3.7-3 4.7s-.7 2.4-1.5 3.1c-.8.7-1.5 2.7-1.5 4.5 0 1.8-.7 3.8-1.5 4.5-.9.8-1.5 3-1.5 6 0 2.8-.6 5.2-1.4 5.9-1.1.9-1.3 10.3-1.3 53.4 0 49.7-.1 52.4-1.9 54.5-1.8 2.1-2.5 2.2-22.1 2.2H0v104.8l20-.1c19.7 0 20 0 22 2.3 1.1 1.3 2 3 2.1 3.9 0 .9.1 29.2.1 62.8 0 50.8.3 61.5 1.4 62.4.8.7 1.4 3.1 1.4 5.9 0 3 .6 5.2 1.5 6 .8.7 1.5 2.5 1.5 4 0 3.1 4.3 11.6 7.1 14.1 1 .9 1.9 2.3 1.9 3.1 0 2 19.8 22 21 21.3.5-.3 2.4.9 4.2 2.7 1.8 1.8 4.2 3.4 5.2 3.6 1.1.2 2.5 1 3.3 1.8.8.8 3 1.4 4.8 1.4 2.4 0 3.8.6 4.5 2 1.1 2 2.1 2 162.3 2 160.1 0 161.3 0 162.7-2 .8-1.1 2.6-2 3.9-2 3.4 0 11.2-3.9 13.4-6.7 1-1.3 2.7-2.3 3.7-2.3 2.2 0 22-19.3 22-21.4 0-.8 1.3-3 3-4.8 1.6-1.8 3-3.9 3-4.6 0-.7.7-2 1.5-2.8.8-.9 1.5-2.9 1.5-4.5 0-1.7.6-3.6 1.3-4.4.8-.7 1.4-3.5 1.5-6.2.1-2.8.8-5.2 1.6-5.9 1.2-.9 1.5-10.7 1.5-63.7 0-41.5.4-63.3 1.1-64.6 1.6-3 4.1-3.4 23.2-3.4H527V223h-19c-17.2 0-19.3-.2-21.1-1.9-1.9-1.8-2-3.2-2-54.2 0-45.7-.2-52.6-1.6-54.1-.9-1-1.6-3.8-1.7-6.8-.1-2.8-.6-5.4-1.3-5.8-.6-.4-1.3-2.5-1.6-4.7-.3-2.2-1-4.1-1.6-4.3-.6-.2-1.1-1.2-1.1-2.2 0-1-1.3-3.2-3-4.8-1.6-1.7-3-3.7-3-4.6 0-2-19.6-21.6-21.7-21.6-.9 0-2.9-1.4-4.5-3-1.5-1.7-3.5-3-4.4-3-.8 0-2.2-.7-3-1.5-.9-.8-3.1-1.5-5-1.5-2.1 0-3.7-.6-4-1.4-.4-1-2.2-1.4-5.7-1.4-3.4-.1-5.5-.6-6.2-1.6-1-1.3-7-1.5-42-1.6-39.1 0-41-.1-42.7-2-1.6-1.7-1.8-4-1.8-21.5V0H200.3v19.6z"/></svg>